<?xml version="1.0" standalone="no"?>
<!DOCTYPE svg PUBLIC "-//W3C//DTD SVG 20010904//EN"
 "http://www.w3.org/TR/2001/REC-SVG-20010904/DTD/svg10.dtd">
<svg version="1.0" xmlns="http://www.w3.org/2000/svg"
 width="500.000000pt" height="500.000000pt" viewBox="0 0 500.000000 500.000000"
 preserveAspectRatio="xMidYMid meet">
<metadata>
Created by potrace 1.14, written by Peter Selinger 2001-2017
</metadata>
<g transform="translate(0.000000,500.000000) scale(0.100000,-0.100000)"
fill="#000000" stroke="none">
<path d="M2650 4935 c-141 -31 -277 -105 -378 -206 -58 -57 -77 -69 -137 -88
-97 -31 -254 -111 -349 -179 -148 -107 -300 -273 -420 -462 -45 -72 -176 -328
-176 -346 0 -5 -27 -36 -60 -68 -118 -117 -185 -253 -199 -406 -6 -70 -13 -94
-34 -121 -37 -49 -66 -106 -93 -177 -37 -97 -47 -148 -49 -263 -5 -173 34
-311 129 -462 8 -12 17 -50 20 -84 4 -34 13 -80 21 -103 14 -38 13 -44 -15
-113 -16 -39 -41 -121 -56 -182 -21 -82 -36 -122 -63 -159 -19 -27 -47 -85
-62 -129 -23 -67 -27 -94 -24 -166 4 -121 14 -157 73 -251 64 -101 182 -187
285 -205 29 -6 55 -23 100 -67 33 -32 87 -79 119 -103 68 -51 215 -136 271
-156 31 -11 39 -19 48 -54 23 -92 44 -130 106 -194 34 -36 63 -62 63 -58 0 4
10 2 22 -5 29 -15 41 -18 106 -25 28 -3 52 -10 52 -15 0 -5 -4 -6 -10 -3 -5 3
-7 0 -5 -7 4 -9 -2 -14 -15 -14 -13 0 -19 5 -16 13 3 7 1 13 -5 13 -6 0 -9 -8
-7 -17 5 -26 48 -24 61 4 5 12 20 24 31 25 21 1 34 3 49 8 4 1 16 4 27 5 11 1
21 3 23 5 11 9 38 5 49 -7 10 -12 9 -14 -8 -11 -10 1 -23 8 -27 13 -5 6 -7 4
-5 -4 5 -16 44 -25 53 -12 3 5 1 12 -5 16 -5 3 -10 11 -10 17 0 6 10 3 22 -8
18 -16 20 -16 15 -2 -3 10 0 19 9 22 8 3 13 2 10 -3 -3 -5 1 -12 10 -15 8 -3
12 -2 9 3 -8 14 8 21 57 26 24 3 63 9 88 14 25 5 48 7 52 5 4 -2 9 0 13 6 3 5
16 10 28 10 21 -1 21 -1 -3 -15 -14 -8 -19 -14 -12 -15 6 0 21 9 32 20 22 22
40 26 40 9 0 -5 -5 -7 -12 -3 -7 5 -8 3 -3 -6 6 -10 11 -10 20 3 7 9 15 14 18
10 4 -3 7 -1 7 6 0 7 6 11 14 8 8 -3 17 -3 21 1 4 4 16 7 28 7 12 1 27 4 33 8
7 4 12 -2 12 -18 0 -13 -5 -23 -11 -22 -19 4 -15 -43 4 -54 13 -6 19 -6 19 1
0 5 -6 10 -13 10 -7 0 -13 9 -14 20 -1 11 3 19 10 17 6 -1 12 8 13 21 2 31 6
34 53 35 23 1 41 6 41 10 0 5 4 6 10 2 5 -3 7 -13 4 -23 -5 -14 -4 -14 4 -2 6
8 9 17 6 21 -6 11 38 19 65 12 17 -4 22 -2 17 6 -5 7 0 11 13 11 10 0 22 -6
24 -12 4 -9 6 -8 6 2 1 9 9 16 19 17 9 1 30 4 46 8 19 4 32 2 37 -7 7 -10 9
-9 9 5 0 11 8 17 23 18 12 0 30 2 39 4 15 3 17 -2 12 -23 -4 -24 -3 -23 10 5
10 22 22 33 36 33 11 0 20 -4 20 -10 0 -5 -8 -7 -17 -4 -15 5 -15 4 -3 -4 16
-12 30 -7 30 12 0 9 11 13 30 11 17 -1 30 1 30 6 0 4 8 8 18 7 9 0 28 3 42 6
14 3 43 8 65 11 22 4 54 9 70 12 17 3 42 6 58 7 15 1 27 4 27 9 0 11 38 9 45
-3 4 -6 10 -8 15 -5 5 3 11 -5 13 -17 5 -20 5 -20 3 2 -1 14 -7 24 -14 23 -6
-2 -12 2 -12 8 0 7 10 9 26 5 14 -4 23 -3 20 2 -3 5 0 9 7 10 80 5 215 115
233 189 4 13 10 23 15 23 4 0 6 14 4 30 -2 17 1 30 7 30 5 0 7 -7 4 -16 -3 -8
-2 -12 4 -9 13 8 13 35 0 35 -5 0 -10 16 -10 36 0 24 4 33 12 28 6 -4 4 3 -5
15 -8 13 -13 30 -10 37 3 8 0 14 -6 14 -6 0 -10 3 -9 8 1 4 -3 17 -10 30 -7
12 -10 22 -6 22 3 0 1 7 -6 15 -7 8 -9 15 -5 15 5 0 2 8 -6 18 -30 37 -38 59
-26 71 8 8 7 11 -6 11 -10 0 -17 8 -17 20 0 11 -5 20 -11 20 -5 0 -7 5 -4 10
3 6 1 10 -4 10 -6 0 -11 7 -11 15 0 8 5 15 11 15 5 0 7 -5 3 -12 -4 -7 -3 -8
5 -4 13 9 5 26 -13 26 -6 0 -22 28 -34 62 -21 60 -21 64 -4 78 27 22 22 52 -8
57 -18 2 -21 1 -10 -6 8 -5 17 -8 21 -5 4 2 7 -5 6 -16 -1 -20 -26 -37 -28
-20 -2 13 -6 29 -9 33 -1 1 -3 10 -5 20 -3 16 1 18 23 13 18 -4 22 -3 13 2
-10 8 -9 15 10 36 12 14 29 26 36 26 7 0 12 3 11 8 -1 4 6 20 16 35 13 19 25
27 38 24 23 -6 33 9 19 27 -9 11 -7 22 8 48 11 18 27 53 36 78 9 24 21 48 28
52 9 6 9 8 -2 8 -8 0 -11 6 -6 17 7 19 18 87 19 115 0 23 36 19 36 -5 0 -10
-4 -16 -9 -12 -5 3 -12 1 -15 -4 -4 -5 2 -8 11 -7 21 3 25 50 6 52 -7 1 -18 2
-24 3 -7 0 -9 12 -6 28 3 15 1 36 -5 46 -6 13 -5 23 4 35 7 9 8 13 2 9 -7 -4
-14 3 -17 18 -3 19 1 29 17 37 11 7 23 12 26 12 3 0 19 13 35 30 17 16 23 26
15 22 -17 -8 5 10 37 31 17 12 17 12 0 6 -17 -5 -17 -4 0 30 21 42 43 56 43
27 0 -11 -6 -19 -12 -18 -7 2 -13 -3 -13 -11 0 -8 6 -15 13 -17 7 -1 8 0 2 3
-14 7 -12 23 3 21 7 -2 12 7 12 22 0 14 -5 24 -12 23 -6 -2 -11 6 -10 17 1 11
4 20 8 20 4 0 5 9 2 20 -3 11 0 27 7 35 10 12 10 15 0 15 -8 0 -9 6 -5 18 7
16 15 78 18 129 1 15 7 22 16 20 20 -3 24 42 5 50 -16 6 -14 63 3 63 6 0 14
-8 16 -17 4 -17 5 -17 6 0 0 10 -6 20 -14 23 -13 5 -14 18 -9 73 4 36 7 72 7
79 0 6 9 12 19 12 11 0 16 -4 13 -10 -3 -5 5 -15 19 -21 14 -7 24 -15 21 -18
-2 -4 1 -13 6 -21 7 -11 8 -9 6 9 -2 14 -9 27 -15 29 -7 2 -10 8 -7 13 4 5 -1
6 -10 3 -10 -4 -15 -2 -13 7 2 7 -7 15 -18 17 -21 3 -42 42 -23 42 5 0 9 8 9
18 0 14 -2 15 -10 2 -8 -13 -10 -12 -11 5 -1 11 -1 28 -1 38 1 10 -3 15 -8 12
-6 -3 -10 3 -10 15 0 12 -4 19 -9 16 -5 -4 -8 0 -7 6 3 13 18 85 22 101 1 4 2
16 3 28 0 11 6 17 11 14 6 -4 8 -11 4 -16 -3 -6 3 -13 15 -16 11 -3 18 -9 15
-14 -3 -5 3 -6 13 -2 14 6 13 9 -12 19 -17 7 -26 13 -21 14 5 0 1 9 -9 20 -10
11 -13 20 -7 20 6 0 9 7 6 15 -4 8 2 23 13 33 10 9 14 14 9 10 -23 -18 -31 1
-13 29 4 6 1 14 -5 16 -7 3 -1 5 15 4 28 -1 36 -12 15 -20 -7 -2 0 -4 15 -4
16 0 31 6 34 13 3 8 10 11 16 7 6 -4 7 -1 2 7 -6 10 -11 9 -22 -6 -12 -16 -15
-17 -23 -4 -5 8 -14 16 -20 16 -5 1 -14 2 -19 3 -5 0 -9 20 -8 43 2 30 8 43
22 50 19 8 19 8 -1 5 -18 -4 -21 1 -21 34 0 31 3 37 13 28 7 -6 10 -17 7 -25
-3 -8 0 -14 6 -14 6 0 10 3 9 8 0 4 2 15 6 25 10 20 0 51 -13 43 -14 -9 -23
25 -10 40 6 7 9 19 6 26 -4 9 -6 8 -6 -3 -1 -9 -7 -22 -15 -28 -11 -10 -14 -9
-12 1 1 7 6 19 10 27 6 9 5 12 0 8 -9 -5 -15 22 -18 86 0 15 -4 27 -7 27 -3 0
-6 6 -6 13 0 15 -22 116 -30 137 -6 15 -10 27 -16 53 -2 6 -11 30 -21 51 -9
22 -14 46 -11 53 2 8 1 11 -4 8 -11 -6 -26 32 -22 54 1 7 -2 10 -7 7 -10 -6
-22 14 -28 43 -1 8 -8 17 -15 21 -6 5 -8 13 -4 20 5 9 4 11 -3 6 -9 -5 -11 13
-10 68 2 65 5 76 20 76 22 0 22 -4 2 -24 -8 -9 -11 -16 -5 -16 13 0 32 35 24
44 -3 3 -18 6 -32 6 -19 0 -22 3 -12 9 7 5 9 10 4 12 -14 5 -24 77 -12 84 5 4
9 -1 9 -9 0 -19 16 -21 26 -4 4 6 3 8 -3 5 -6 -4 -13 0 -17 8 -3 8 -12 12 -20
9 -10 -4 -16 4 -21 28 -10 48 -91 194 -133 241 -92 101 -201 184 -275 209 -17
6 -36 14 -42 19 -15 11 -121 36 -185 44 -30 3 -75 16 -100 27 -25 12 -54 25
-65 30 -102 41 -305 58 -415 33z m1481 -1560 c5 4 9 -3 9 -15 0 -20 -1 -20
-24 -3 -13 10 -21 24 -18 32 4 10 7 10 14 -3 5 -9 13 -14 19 -11z m-34 -895
c1 -11 0 -20 -2 -20 -2 0 -9 9 -15 20 -8 15 -8 20 3 20 7 0 13 -9 14 -20z
m-277 -1010 c0 -5 -7 -7 -15 -4 -8 4 -12 10 -9 15 6 11 24 2 24 -11z"/>
<path d="M3811 4473 c7 -12 15 -20 18 -17 3 2 -3 12 -13 22 -17 16 -18 16 -5
-5z"/>
<path d="M3837 4429 c7 -7 15 -10 18 -7 3 3 -2 9 -12 12 -14 6 -15 5 -6 -5z"/>
<path d="M3850 4399 c0 -5 5 -7 10 -4 6 3 10 8 10 11 0 2 -4 4 -10 4 -5 0 -10
-5 -10 -11z"/>
<path d="M3873 4365 c0 -30 6 -28 12 4 2 11 0 21 -4 21 -5 0 -8 -11 -8 -25z"/>
<path d="M3910 4321 c0 -6 4 -13 10 -16 6 -3 7 1 4 9 -7 18 -14 21 -14 7z"/>
<path d="M3925 4260 c-3 -6 1 -7 9 -4 18 7 21 14 7 14 -6 0 -13 -4 -16 -10z"/>
<path d="M3939 4243 c-1 -5 -1 -11 0 -15 2 -12 -17 -10 -22 2 -3 6 -4 5 -3 -2
4 -19 29 -16 32 5 1 9 0 17 -2 17 -2 0 -5 -3 -5 -7z"/>
<path d="M3965 4179 c-4 -6 -5 -12 -2 -15 2 -3 7 2 10 11 7 17 1 20 -8 4z"/>
<path d="M3950 4140 c0 -5 5 -10 10 -10 6 0 10 5 10 10 0 6 -4 10 -10 10 -5 0
-10 -4 -10 -10z"/>
<path d="M3930 4120 c8 -5 20 -10 25 -10 6 0 3 5 -5 10 -8 5 -19 10 -25 10 -5
0 -3 -5 5 -10z"/>
<path d="M3919 4103 c0 -5 -3 -19 -5 -32 -2 -14 -2 -22 1 -19 8 8 17 58 10 58
-3 0 -5 -3 -6 -7z"/>
<path d="M3975 4100 c3 -5 8 -10 11 -10 2 0 4 5 4 10 0 6 -5 10 -11 10 -5 0
-7 -4 -4 -10z"/>
<path d="M3955 4080 c20 -8 18 -11 -7 -14 -7 0 -13 -12 -13 -26 0 -20 5 -25
25 -25 19 0 25 6 26 22 1 13 -2 20 -7 17 -4 -2 -6 -10 -3 -17 2 -7 -4 -13 -14
-14 -11 -1 -18 6 -19 18 -1 10 1 18 5 17 4 -1 15 2 25 7 15 6 16 10 5 16 -7 5
-20 8 -28 8 -10 0 -8 -3 5 -9z"/>
<path d="M3958 3993 c7 -3 16 -2 19 1 4 3 -2 6 -13 5 -11 0 -14 -3 -6 -6z"/>
<path d="M3960 3966 c0 -2 7 -7 16 -10 8 -3 12 -2 9 4 -6 10 -25 14 -25 6z"/>
<path d="M3982 3920 c0 -14 2 -19 5 -12 2 6 2 18 0 25 -3 6 -5 1 -5 -13z"/>
<path d="M4014 3883 c2 -12 -1 -24 -8 -27 -8 -3 -8 -5 1 -5 17 -1 22 11 12 34
-9 19 -9 19 -5 -2z"/>
<path d="M4020 3840 c-12 -7 -10 -9 7 -7 12 0 19 5 17 9 -6 10 -6 10 -24 -2z"/>
<path d="M4035 3780 c-3 -5 -1 -10 4 -10 6 0 11 5 11 10 0 6 -2 10 -4 10 -3 0
-8 -4 -11 -10z"/>
<path d="M4055 3760 c-3 -5 -3 -10 2 -10 4 0 1 -5 -7 -11 -13 -9 -13 -10 0 -6
8 2 14 10 12 17 -2 8 3 10 13 6 9 -3 13 -2 10 4 -8 13 -22 13 -30 0z"/>
<path d="M4075 3730 c-3 -6 1 -7 9 -4 18 7 21 14 7 14 -6 0 -13 -4 -16 -10z"/>
<path d="M4072 3696 c7 -8 15 -12 17 -11 5 6 -10 25 -20 25 -5 0 -4 -6 3 -14z"/>
<path d="M4070 3658 c0 -6 6 -8 14 -5 8 3 17 2 20 -4 2 -5 3 -4 2 2 -3 15 -36
21 -36 7z"/>
<path d="M4120 3632 c0 -7 -6 -11 -12 -9 -8 1 -13 -8 -13 -23 0 -16 5 -24 14
-22 8 2 11 -3 8 -11 -3 -8 -1 -20 4 -28 5 -9 7 -4 5 16 -1 17 -8 29 -14 28 -7
-2 -12 6 -12 18 0 11 4 18 9 14 11 -6 26 13 17 22 -3 4 -6 1 -6 -5z"/>
<path d="M4130 3600 c0 -5 5 -10 11 -10 5 0 7 5 4 10 -3 6 -8 10 -11 10 -2 0
-4 -4 -4 -10z"/>
<path d="M4097 3529 c4 -13 8 -18 11 -10 2 7 -1 18 -6 23 -8 8 -9 4 -5 -13z"/>
<path d="M4135 3520 c-3 -5 -3 -10 2 -11 4 -1 -3 -5 -17 -10 l-25 -8 25 2 c14
1 23 6 22 11 -2 5 2 13 10 17 9 6 9 9 1 9 -6 0 -15 -4 -18 -10z"/>
<path d="M4146 3485 c-11 -8 -15 -15 -9 -15 6 0 16 7 23 15 16 19 11 19 -14 0z"/>
<path d="M4155 3459 c-4 -6 -5 -12 -2 -15 2 -3 7 2 10 11 7 17 1 20 -8 4z"/>
<path d="M4134 3418 c-4 -5 -3 -12 0 -15 3 -4 6 -1 6 5 0 6 7 9 15 6 8 -4 15
-12 15 -19 0 -8 4 -16 10 -20 6 -3 5 5 -1 23 -9 28 -34 38 -45 20z"/>
<path d="M4170 3350 c6 -11 13 -20 16 -20 2 0 0 9 -6 20 -6 11 -13 20 -16 20
-2 0 0 -9 6 -20z"/>
<path d="M4167 3310 c10 -11 19 -20 21 -20 1 0 -2 9 -8 20 -6 11 -15 20 -20
20 -6 0 -2 -9 7 -20z"/>
<path d="M4153 3292 c0 -11 3 -19 6 -17 2 3 9 -3 16 -12 10 -13 13 -14 20 -2
5 8 4 11 0 6 -5 -4 -16 5 -26 20 -16 25 -18 25 -16 5z"/>
<path d="M4120 3259 c-13 -9 -12 -10 3 -5 19 6 24 -10 5 -17 -10 -4 -10 -6 -1
-6 16 -1 27 19 17 29 -5 5 -16 5 -24 -1z"/>
<path d="M4150 3220 c0 -5 5 -10 10 -10 6 0 10 5 10 10 0 6 -4 10 -10 10 -5 0
-10 -4 -10 -10z"/>
<path d="M4118 3203 c7 -3 16 -2 19 1 4 3 -2 6 -13 5 -11 0 -14 -3 -6 -6z"/>
<path d="M4177 3143 c-10 -10 -8 -41 2 -48 5 -3 13 0 17 6 4 8 3 9 -4 5 -8 -5
-12 1 -12 14 0 13 4 19 12 14 7 -4 8 -3 4 4 -8 14 -10 14 -19 5z"/>
<path d="M4141 3123 c-1 -13 -6 -22 -12 -20 -6 1 -13 -4 -14 -11 -2 -7 -1 -8
2 -2 2 5 9 8 14 4 11 -7 23 21 16 38 -3 7 -6 3 -6 -9z"/>
<path d="M4150 3086 c0 -2 7 -7 16 -10 8 -3 12 -2 9 4 -6 10 -25 14 -25 6z"/>
<path d="M4134 3069 c1 -7 13 -14 27 -16 18 -2 20 -1 9 6 -8 5 -17 8 -21 5 -4
-2 -10 1 -12 6 -3 6 -4 5 -3 -1z"/>
<path d="M4110 3063 c0 -6 8 -17 18 -24 16 -13 16 -13 2 6 -8 11 -16 22 -17
24 -2 2 -3 0 -3 -6z"/>
<path d="M4150 3029 c0 -5 5 -7 10 -4 6 3 10 8 10 11 0 2 -4 4 -10 4 -5 0 -10
-5 -10 -11z"/>
<path d="M4175 3020 c-3 -5 -1 -10 4 -10 6 0 11 5 11 10 0 6 -2 10 -4 10 -3 0
-8 -4 -11 -10z"/>
<path d="M4087 2999 c7 -7 15 -10 18 -7 3 3 -2 9 -12 12 -14 6 -15 5 -6 -5z"/>
<path d="M4151 2991 c-17 -11 -25 -48 -12 -56 5 -3 13 0 17 6 5 8 3 9 -5 5 -8
-6 -11 -2 -9 10 2 11 12 24 23 31 11 7 16 12 10 12 -5 1 -16 -3 -24 -8z"/>
<path d="M4111 2964 c0 -11 3 -14 6 -6 3 7 2 16 -1 19 -3 4 -6 -2 -5 -13z"/>
<path d="M4090 2941 c0 -5 7 -11 15 -15 17 -6 21 -27 4 -23 -6 1 -14 -4 -16
-10 -7 -18 22 -27 44 -14 15 9 13 10 -9 5 -18 -4 -28 -2 -28 5 0 6 5 10 12 9
21 -5 19 26 -2 40 -11 7 -20 8 -20 3z"/>
<path d="M4070 2925 c0 -8 4 -15 10 -15 5 0 7 7 4 15 -4 8 -8 15 -10 15 -2 0
-4 -7 -4 -15z"/>
<path d="M4157 2923 c-10 -9 -9 -23 1 -23 5 0 9 7 9 15 0 17 -1 18 -10 8z"/>
<path d="M4139 2868 c-11 -40 1 -73 17 -47 5 8 3 9 -5 5 -15 -10 -11 25 4 36
6 5 5 8 -2 8 -7 0 -13 -1 -14 -2z"/>
<path d="M4105 2840 c3 -5 8 -10 11 -10 2 0 4 5 4 10 0 6 -5 10 -11 10 -5 0
-7 -4 -4 -10z"/>
<path d="M4120 2806 c0 -2 8 -10 18 -17 15 -13 16 -12 3 4 -13 16 -21 21 -21
13z"/>
<path d="M4111 2776 c2 -2 15 -9 29 -15 24 -11 24 -11 6 3 -16 13 -49 24 -35
12z"/>
<path d="M4110 2700 c0 -5 5 -10 10 -10 6 0 10 5 10 10 0 6 -4 10 -10 10 -5 0
-10 -4 -10 -10z"/>
<path d="M4139 2683 c-1 -5 -1 -12 0 -17 1 -5 -5 -6 -13 -3 -9 4 -18 2 -20 -2
-3 -5 3 -8 14 -7 11 0 20 5 19 10 0 5 5 13 13 17 10 7 10 9 1 9 -7 0 -14 -3
-14 -7z"/>
<path d="M4148 2648 c-10 -10 -14 -18 -9 -18 10 0 36 29 30 34 -2 1 -12 -6
-21 -16z"/>
<path d="M4179 2643 c-1 -5 -1 -11 0 -15 0 -5 -6 -8 -14 -8 -8 0 -15 -4 -15
-10 0 -5 7 -6 17 -3 11 4 14 3 9 -5 -4 -7 -3 -12 2 -12 5 0 9 14 8 30 -1 28
-5 39 -7 23z"/>
<path d="M4116 2605 c-3 -8 -1 -15 4 -15 6 0 10 7 10 15 0 8 -2 15 -4 15 -2 0
-6 -7 -10 -15z"/>
<path d="M4139 2587 c-1 -1 -3 -12 -4 -25 -3 -28 16 -38 42 -23 15 10 14 10
-7 6 -21 -5 -26 -2 -27 15 -2 18 1 19 13 10 8 -8 14 -8 14 -2 0 8 -28 26 -31
19z"/>
<path d="M4091 2525 c4 -3 19 -8 35 -11 16 -3 26 -2 23 1 -4 3 -19 8 -35 11
-16 3 -26 2 -23 -1z"/>
<path d="M4175 2520 c-3 -5 -1 -10 4 -10 6 0 11 5 11 10 0 6 -2 10 -4 10 -3 0
-8 -4 -11 -10z"/>
<path d="M4121 2484 c0 -11 3 -14 6 -6 3 7 2 16 -1 19 -3 4 -6 -2 -5 -13z"/>
<path d="M4150 2490 c0 -5 7 -7 15 -4 8 4 15 8 15 10 0 2 -7 4 -15 4 -8 0 -15
-4 -15 -10z"/>
<path d="M4133 2453 c-3 -7 -2 -17 2 -23 9 -14 -26 -9 -38 5 -5 6 -7 4 -4 -5
2 -8 14 -15 28 -15 20 0 23 4 21 24 -2 13 0 21 5 18 5 -3 15 -2 23 3 11 7 9 9
-9 7 -13 -1 -25 -7 -28 -14z"/>
<path d="M4165 2440 c-3 -5 -1 -10 4 -10 6 0 11 5 11 10 0 6 -2 10 -4 10 -3 0
-8 -4 -11 -10z"/>
<path d="M4155 2409 c-4 -6 -5 -12 -2 -15 2 -3 7 2 10 11 7 17 1 20 -8 4z"/>
<path d="M4109 2391 c10 -7 8 -12 -10 -25 -13 -9 -18 -16 -12 -16 6 0 16 7 23
15 14 16 35 21 25 6 -3 -6 3 -14 13 -20 14 -7 19 -6 19 4 0 7 -7 11 -15 7 -10
-3 -13 -1 -8 6 3 6 -2 16 -13 21 -23 13 -42 14 -22 2z"/>
<path d="M4075 2380 c-3 -5 -1 -10 4 -10 6 0 11 5 11 10 0 6 -2 10 -4 10 -3 0
-8 -4 -11 -10z"/>
<path d="M4110 2340 c0 -5 5 -10 10 -10 6 0 10 5 10 10 0 6 -4 10 -10 10 -5 0
-10 -4 -10 -10z"/>
<path d="M4075 2320 c-4 -6 -4 -14 -1 -17 3 -4 6 -1 6 5 0 7 5 12 10 12 6 0 9
-6 8 -12 -2 -8 7 -13 20 -13 12 0 22 4 21 9 0 5 5 13 13 18 10 8 10 9 -2 5 -8
-2 -14 -10 -12 -16 1 -6 -7 -11 -18 -11 -11 0 -19 5 -17 11 3 16 -20 23 -28 9z"/>
<path d="M4140 2280 c-12 -7 -10 -9 7 -7 12 0 19 5 17 9 -6 10 -6 10 -24 -2z"/>
<path d="M4075 2262 c26 -9 34 -44 8 -36 -15 5 -15 4 -3 -4 19 -14 30 -6 26
21 -2 15 -11 23 -27 24 -21 2 -21 1 -4 -5z"/>
<path d="M4121 2244 c0 -11 3 -14 6 -6 3 7 2 16 -1 19 -3 4 -6 -2 -5 -13z"/>
<path d="M4134 2215 c-3 -8 -3 -19 1 -25 9 -14 -26 -9 -38 5 -5 6 -7 4 -4 -5
2 -8 14 -15 28 -15 20 0 23 4 21 24 -3 16 0 21 9 16 8 -5 10 -4 5 3 -10 16
-15 15 -22 -3z"/>
<path d="M4065 2200 c3 -5 8 -10 11 -10 2 0 4 5 4 10 0 6 -5 10 -11 10 -5 0
-7 -4 -4 -10z"/>
<path d="M4108 2153 c6 -2 10 -9 7 -14 -4 -5 2 -6 11 -2 13 5 15 3 9 -7 -6 -9
-4 -11 5 -5 10 6 9 11 -5 22 -11 7 -24 13 -29 12 -6 0 -5 -3 2 -6z"/>
<path d="M4090 2130 c6 -11 15 -20 20 -20 6 0 2 9 -7 20 -10 11 -19 20 -21 20
-1 0 2 -9 8 -20z"/>
<path d="M4070 2100 c0 -5 5 -10 10 -10 6 0 10 5 10 10 0 6 -4 10 -10 10 -5 0
-10 -4 -10 -10z"/>
<path d="M4038 2083 c7 -3 16 -2 19 1 4 3 -2 6 -13 5 -11 0 -14 -3 -6 -6z"/>
<path d="M4108 2083 c7 -3 16 -2 19 1 4 3 -2 6 -13 5 -11 0 -14 -3 -6 -6z"/>
<path d="M4016 2062 c-2 -4 4 -18 15 -31 10 -13 19 -20 19 -15 0 4 -7 15 -16
25 -15 17 -15 18 5 16 12 -1 21 -7 21 -14 0 -7 5 -13 10 -13 7 0 7 6 1 18 -9
18 -47 27 -55 14z"/>
<path d="M4094 2058 c-4 -5 -3 -12 0 -15 3 -4 6 -1 6 6 0 7 4 10 9 6 5 -3 12
-2 15 3 3 5 -2 9 -10 9 -8 0 -17 -4 -20 -9z"/>
<path d="M3993 2044 c4 -7 1 -14 -7 -17 -7 -3 -13 -16 -12 -29 1 -17 7 -23 25
-23 32 0 38 36 9 61 -12 11 -18 14 -15 8z m24 -43 c-1 -12 -8 -19 -19 -18 -18
1 -21 27 -3 39 14 10 24 0 22 -21z"/>
<path d="M4068 2003 c6 -2 18 -2 25 0 6 3 1 5 -13 5 -14 0 -19 -2 -12 -5z"/>
<path d="M3918 1993 c7 -3 16 -2 19 1 4 3 -2 6 -13 5 -11 0 -14 -3 -6 -6z"/>
<path d="M3950 1981 c0 -6 4 -13 10 -16 6 -3 7 1 4 9 -7 18 -14 21 -14 7z"/>
<path d="M3920 1960 c0 -5 5 -10 10 -10 6 0 10 5 10 10 0 6 -4 10 -10 10 -5 0
-10 -4 -10 -10z"/>
<path d="M4035 1961 c3 -2 -3 -9 -12 -16 -13 -10 -14 -13 -2 -20 8 -5 11 -4 6
0 -4 5 5 16 20 26 25 16 25 18 5 16 -11 0 -19 -3 -17 -6z"/>
<path d="M3988 1953 c7 -3 16 -2 19 1 4 3 -2 6 -13 5 -11 0 -14 -3 -6 -6z"/>
<path d="M3950 1940 c0 -5 5 -10 10 -10 6 0 10 5 10 10 0 6 -4 10 -10 10 -5 0
-10 -4 -10 -10z"/>
<path d="M3906 1921 c-4 -5 -1 -13 5 -17 8 -4 9 -3 5 4 -4 7 -1 12 8 12 9 0
15 -6 14 -12 -2 -8 7 -13 22 -13 16 0 24 5 22 14 -2 9 3 11 15 7 14 -6 15 -4
6 5 -13 13 -37 3 -28 -12 4 -5 -3 -9 -14 -9 -12 0 -20 5 -18 12 3 15 -29 23
-37 9z"/>
<path d="M3927 1879 c7 -7 15 -10 18 -7 3 3 -2 9 -12 12 -14 6 -15 5 -6 -5z"/>
<path d="M3966 1867 c3 -10 9 -15 12 -12 3 3 0 11 -7 18 -10 9 -11 8 -5 -6z"/>
<path d="M3915 1850 c3 -5 8 -10 11 -10 2 0 4 5 4 10 0 6 -5 10 -11 10 -5 0
-7 -4 -4 -10z"/>
<path d="M3951 1850 c0 -8 4 -22 9 -30 12 -18 12 -2 0 25 -6 13 -9 15 -9 5z"/>
<path d="M3976 1782 c-8 -14 0 -46 13 -48 6 -1 7 0 2 2 -5 3 -7 16 -5 30 4 24
0 31 -10 16z"/>
<path d="M3951 1754 c0 -11 3 -14 6 -6 3 7 2 16 -1 19 -3 4 -6 -2 -5 -13z"/>
<path d="M3915 1750 c3 -5 8 -10 11 -10 2 0 4 5 4 10 0 6 -5 10 -11 10 -5 0
-7 -4 -4 -10z"/>
<path d="M3931 1725 c4 -3 19 -8 35 -11 16 -3 26 -2 23 1 -4 3 -19 8 -35 11
-16 3 -26 2 -23 -1z"/>
<path d="M3910 1710 c0 -5 6 -10 13 -10 7 0 13 -9 14 -21 2 -20 1 -20 -16 -5
-10 9 -22 16 -27 16 -5 0 -2 -4 6 -10 8 -5 14 -21 15 -37 0 -18 5 -27 14 -25
9 2 11 -3 7 -13 -3 -9 -2 -14 3 -10 5 3 11 0 13 -7 3 -7 7 -5 11 6 4 9 3 15
-2 12 -5 -3 -12 1 -15 10 -3 8 -10 12 -16 9 -5 -3 -10 3 -10 14 0 12 5 20 12
19 20 -5 17 42 -3 53 -13 6 -19 6 -19 -1z"/>
<path d="M3986 1683 c-6 -14 -5 -15 5 -6 7 7 10 15 7 18 -3 3 -9 -2 -12 -12z"/>
<path d="M3956 1655 c-9 -26 -7 -32 5 -12 6 10 9 21 6 23 -2 3 -7 -2 -11 -11z"/>
<path d="M3885 1639 c-4 -6 -5 -12 -2 -15 2 -3 7 2 10 11 7 17 1 20 -8 4z"/>
<path d="M3974 1639 c-3 -6 -1 -16 6 -22 10 -9 11 -9 5 2 -4 8 -2 17 6 22 9 6
10 9 2 9 -6 0 -15 -5 -19 -11z"/>
<path d="M3890 1600 c0 -5 5 -10 10 -10 6 0 10 5 10 10 0 6 -4 10 -10 10 -5 0
-10 -4 -10 -10z"/>
<path d="M3880 1574 c0 -6 6 -16 13 -23 10 -11 9 -13 -6 -8 -10 4 -16 3 -12
-2 3 -5 -1 -12 -7 -14 -7 -3 -8 -6 -2 -6 5 -1 18 5 27 12 14 11 14 14 2 31 -8
11 -15 15 -15 10z"/>
<path d="M3910 1569 c0 -5 4 -8 9 -5 5 4 11 0 14 -6 2 -7 8 -9 13 -5 5 4 2 12
-6 17 -20 13 -30 12 -30 -1z"/>
<path d="M3846 1543 c-6 -14 -5 -15 5 -6 7 7 10 15 7 18 -3 3 -9 -2 -12 -12z"/>
<path d="M3953 1535 c-3 -9 -3 -18 -1 -21 3 -3 8 4 11 16 6 23 -1 27 -10 5z"/>
<path d="M3917 1533 c-4 -3 -7 -11 -7 -17 0 -6 5 -5 12 2 6 6 9 14 7 17 -3 3
-9 2 -12 -2z"/>
<path d="M3835 1509 c-4 -6 -5 -12 -2 -15 2 -3 7 2 10 11 7 17 1 20 -8 4z"/>
<path d="M3854 1499 c-7 -12 4 -29 19 -28 9 0 9 2 0 6 -19 7 -16 19 6 20 13 1
18 -5 17 -20 -1 -13 6 -23 17 -25 9 -2 17 1 17 7 0 6 -6 8 -14 5 -9 -4 -13 2
-12 18 1 17 -5 23 -22 24 -12 1 -25 -3 -28 -7z"/>
<path d="M3933 1503 c4 -6 2 -13 -5 -15 -8 -3 -6 -6 4 -10 17 -7 19 15 3 29
-4 4 -5 3 -2 -4z"/>
<path d="M3839 1463 c0 -5 -3 -19 -5 -32 -2 -14 -2 -22 1 -19 8 8 17 58 10 58
-3 0 -5 -3 -6 -7z"/>
<path d="M3788 1438 c5 -5 16 -8 23 -6 8 3 3 7 -10 11 -17 4 -21 3 -13 -5z"/>
<path d="M3875 1440 c27 -12 43 -12 25 0 -8 5 -22 9 -30 9 -10 0 -8 -3 5 -9z"/>
<path d="M3770 1420 c0 -5 5 -10 11 -10 5 0 7 5 4 10 -3 6 -8 10 -11 10 -2 0
-4 -4 -4 -10z"/>
<path d="M3854 1419 c-8 -14 11 -33 25 -25 6 4 11 11 11 16 0 13 -29 20 -36 9z
m21 -9 c3 -5 1 -10 -4 -10 -6 0 -11 5 -11 10 0 6 2 10 4 10 3 0 8 -4 11 -10z"/>
<path d="M3795 1399 c-11 -16 -1 -19 13 -3 7 8 8 14 3 14 -5 0 -13 -5 -16 -11z"/>
<path d="M3756 1385 c-9 -26 -7 -32 5 -12 6 10 9 21 6 23 -2 3 -7 -2 -11 -11z"/>
<path d="M3823 1393 c-7 -3 -13 -9 -13 -15 0 -6 7 -4 17 3 15 12 16 12 9 -6
-6 -16 -5 -18 5 -7 15 14 1 32 -18 25z"/>
<path d="M3713 1349 c-2 -23 3 -25 10 -4 4 8 3 16 -1 19 -4 3 -9 -4 -9 -15z"/>
<path d="M3780 1360 c8 -5 22 -9 30 -9 10 0 8 3 -5 9 -27 12 -43 12 -25 0z"/>
<path d="M3860 1359 c0 -5 5 -7 10 -4 6 3 10 8 10 11 0 2 -4 4 -10 4 -5 0 -10
-5 -10 -11z"/>
<path d="M3733 1334 c-3 -8 -2 -21 1 -29 4 -13 10 -14 26 -5 11 6 20 15 20 20
0 6 0 13 0 18 0 13 -42 10 -47 -4z m41 -9 c-9 -22 -34 -27 -34 -7 0 10 8 18
19 19 13 1 18 -3 15 -12z"/>
<path d="M3830 1340 c0 -5 5 -10 10 -10 6 0 10 5 10 10 0 6 -4 10 -10 10 -5 0
-10 -4 -10 -10z"/>
<path d="M3795 1319 c-11 -16 -1 -19 13 -3 7 8 8 14 3 14 -5 0 -13 -5 -16 -11z"/>
<path d="M3721 1274 c0 -11 3 -14 6 -6 3 7 2 16 -1 19 -3 4 -6 -2 -5 -13z"/>
<path d="M3770 1285 c0 -8 29 -12 39 -5 9 5 4 8 -13 8 -14 0 -26 -2 -26 -3z"/>
<path d="M3750 1270 c0 -6 7 -10 15 -10 8 0 15 2 15 4 0 2 -7 6 -15 10 -8 3
-15 1 -15 -4z"/>
<path d="M3710 1238 c0 -11 12 -10 30 2 12 7 10 9 -8 7 -12 0 -22 -5 -22 -9z"/>
<path d="M3688 1223 c6 -2 9 -10 6 -15 -4 -7 -2 -8 4 -4 7 4 12 2 12 -3 0 -6
5 -11 12 -11 6 0 3 9 -7 20 -10 11 -23 20 -29 19 -6 0 -6 -3 2 -6z"/>
<path d="M3735 1220 c-3 -5 -1 -10 4 -10 6 0 11 5 11 10 0 6 -2 10 -4 10 -3 0
-8 -4 -11 -10z"/>
<path d="M3739 1188 c-8 -16 -3 -51 7 -55 8 -3 11 -10 7 -17 -3 -6 -2 -7 2 -3
14 12 14 36 1 31 -6 -2 -12 5 -13 16 -1 12 2 18 9 14 7 -4 8 -2 4 4 -7 11 -14
15 -17 10z"/>
<path d="M3700 1171 c0 -6 4 -13 10 -16 6 -3 7 1 4 9 -7 18 -14 21 -14 7z"/>
<path d="M3757 1083 c-4 -3 -7 -11 -7 -17 0 -6 5 -5 12 2 6 6 9 14 7 17 -3 3
-9 2 -12 -2z"/>
<path d="M3775 1060 c-3 -5 -3 -10 2 -10 4 0 1 -5 -7 -11 -12 -8 -12 -10 -1
-7 8 2 15 12 17 21 3 19 -2 22 -11 7z"/>
<path d="M3791 1025 c1 -19 18 -51 18 -35 0 8 -4 22 -9 30 -5 8 -9 11 -9 5z"/>
<path d="M3800 960 c-9 -6 -10 -10 -3 -10 6 0 15 5 18 10 8 12 4 12 -15 0z"/>
<path d="M3814 939 c-4 -7 -3 -9 4 -5 5 3 13 0 15 -6 4 -9 6 -10 6 -1 1 17
-16 25 -25 12z"/>
<path d="M3826 898 c3 -4 9 -8 15 -8 5 0 9 4 9 8 0 5 -7 9 -15 9 -8 0 -12 -4
-9 -9z"/>
<path d="M3843 854 c9 -3 15 -10 12 -15 -4 -5 -1 -9 5 -9 19 0 5 25 -16 27
-16 2 -16 1 -1 -3z"/>
<path d="M3867 806 c-3 -8 1 -22 9 -33 14 -17 15 -17 5 3 -7 15 -7 24 1 32 8
8 9 12 1 12 -6 0 -13 -6 -16 -14z"/>
<path d="M3890 791 c0 -6 4 -13 10 -16 6 -3 7 1 4 9 -7 18 -14 21 -14 7z"/>
<path d="M3872 741 c-11 -6 -10 -10 4 -15 9 -3 19 -4 22 -1 3 3 0 5 -7 5 -7 0
-9 5 -6 10 7 12 4 12 -13 1z"/>
<path d="M3910 719 c0 -5 5 -7 10 -4 6 3 10 8 10 11 0 2 -4 4 -10 4 -5 0 -10
-5 -10 -11z"/>
<path d="M3870 701 c8 -5 18 -7 22 -5 4 3 8 -2 8 -10 0 -19 16 -21 26 -4 4 6
3 8 -4 4 -5 -3 -12 -1 -14 6 -2 6 -15 13 -29 15 -18 2 -20 1 -9 -6z"/>
<path d="M3871 647 c-13 -21 -12 -21 5 -5 10 10 16 20 13 22 -3 3 -11 -5 -18
-17z"/>
<path d="M3899 643 c-1 -5 -1 -11 0 -15 0 -5 -5 -8 -12 -8 -7 0 -22 -7 -33
-15 -17 -13 -15 -13 16 0 19 7 34 19 32 26 -2 8 6 9 25 5 21 -5 24 -4 13 4
-18 12 -40 13 -41 3z"/>
<path d="M3917 613 c-4 -3 -7 -11 -7 -17 0 -6 5 -5 12 2 6 6 9 14 7 17 -3 3
-9 2 -12 -2z"/>
<path d="M3859 583 c-1 -4 -1 -11 0 -15 2 -12 -17 -10 -22 2 -3 6 -4 5 -3 -2
2 -7 9 -13 17 -13 8 0 13 6 12 13 -2 6 6 12 17 12 11 0 19 -5 18 -12 -2 -7 7
-13 19 -14 12 -1 20 2 17 7 -2 4 -11 6 -20 2 -9 -3 -14 0 -12 8 2 8 -7 15 -19
17 -13 2 -24 0 -24 -5z"/>
<path d="M3808 526 c-7 -14 -17 -25 -23 -25 -5 -1 -10 -11 -10 -23 0 -14 5
-22 14 -20 8 2 11 -3 8 -11 -3 -7 4 -19 14 -25 12 -8 19 -8 19 -2 0 5 -4 10
-9 10 -5 0 -11 9 -14 21 -3 12 -10 18 -16 14 -7 -3 -11 3 -11 15 0 12 4 18 10
15 5 -3 15 5 21 19 12 25 31 27 25 3 -1 -7 -1 -9 1 -4 7 11 23 8 21 -4 -2 -6
3 -13 10 -14 7 -2 8 -1 2 2 -5 2 -8 8 -5 13 3 4 -6 15 -20 24 -23 15 -25 15
-37 -8z"/>
<path d="M3870 540 c0 -5 5 -10 10 -10 6 0 10 5 10 10 0 6 -4 10 -10 10 -5 0
-10 -4 -10 -10z"/>
<path d="M3900 525 c-14 -8 -20 -14 -14 -15 5 0 19 7 30 15 24 18 16 19 -16 0z"/>
<path d="M3810 480 c0 -5 5 -10 10 -10 6 0 10 5 10 10 0 6 -4 10 -10 10 -5 0
-10 -4 -10 -10z"/>
<path d="M3878 473 c7 -3 16 -2 19 1 4 3 -2 6 -13 5 -11 0 -14 -3 -6 -6z"/>
<path d="M3754 457 c5 -15 2 -17 -17 -12 -20 5 -20 5 -4 -6 23 -14 40 0 26 21
-9 12 -10 12 -5 -3z"/>
<path d="M3835 460 c-4 -6 -4 -14 -1 -17 3 -4 6 -1 6 5 0 7 5 12 11 12 5 0 8
-4 5 -8 -2 -4 0 -14 5 -22 7 -11 8 -9 6 9 -4 27 -21 38 -32 21z"/>
<path d="M3700 432 c0 -6 -8 -9 -17 -6 -15 5 -16 4 -3 -5 16 -11 40 3 27 16
-4 3 -7 1 -7 -5z"/>
<path d="M3711 407 c-13 -21 -12 -21 5 -5 10 10 16 20 13 22 -3 3 -11 -5 -18
-17z"/>
<path d="M3755 413 c-11 -8 -19 -19 -17 -24 1 -5 -5 -9 -14 -9 -26 0 -73 -39
-71 -60 1 -10 5 -17 9 -14 4 3 4 12 1 21 -5 12 -3 14 7 8 8 -5 11 -4 7 2 -6 9
16 24 56 37 10 3 16 9 13 14 -2 4 4 13 14 20 16 10 18 8 17 -8 -1 -11 -7 -22
-14 -24 -16 -6 -17 -26 -2 -26 5 0 8 4 5 9 -4 5 -1 11 6 13 13 5 21 45 10 52
-4 2 -16 -2 -27 -11z"/>
<path d="M3620 397 c0 -9 -6 -16 -12 -14 -8 1 -13 -8 -13 -23 0 -16 5 -24 14
-22 9 2 11 -3 7 -13 -3 -9 -2 -13 4 -10 6 3 10 1 10 -6 0 -7 3 -10 6 -7 9 10
-16 49 -27 43 -5 -4 -9 3 -9 15 0 12 5 18 10 15 11 -7 26 22 16 32 -3 4 -6 -1
-6 -10z"/>
<path d="M3650 397 c0 -8 3 -16 6 -20 8 -8 34 3 34 15 0 6 -8 4 -17 -3 -15
-12 -16 -12 -10 4 3 9 2 17 -3 17 -6 0 -10 -6 -10 -13z"/>
<path d="M3801 394 c0 -11 3 -14 6 -6 3 7 2 16 -1 19 -3 4 -6 -2 -5 -13z"/>
<path d="M3835 399 c-11 -16 -1 -19 13 -3 7 8 8 14 3 14 -5 0 -13 -5 -16 -11z"/>
<path d="M3492 364 c-11 -12 -9 -13 10 -11 13 2 28 -3 35 -12 7 -9 13 -11 13
-5 0 6 -7 17 -15 24 -8 7 -15 9 -15 4 0 -5 -4 -4 -8 2 -5 9 -11 8 -20 -2z"/>
<path d="M3454 355 c6 -18 -23 -17 -37 0 -5 6 -7 4 -4 -5 5 -21 49 -19 53 3 1
9 -2 17 -8 17 -6 0 -7 -7 -4 -15z"/>
<path d="M3630 360 c0 -5 5 -10 10 -10 6 0 10 5 10 10 0 6 -4 10 -10 10 -5 0
-10 -4 -10 -10z"/>
<path d="M3330 340 c0 -5 5 -10 11 -10 5 0 7 5 4 10 -3 6 -8 10 -11 10 -2 0
-4 -4 -4 -10z"/>
<path d="M3364 339 c-4 -7 -3 -9 4 -5 6 4 10 -1 9 -13 0 -11 -12 -24 -25 -30
-13 -6 -21 -15 -17 -20 3 -6 -3 -9 -14 -8 -13 1 -19 8 -18 21 3 26 -40 30 -54
4 -6 -12 -6 -18 1 -18 5 0 10 6 10 13 0 7 9 13 20 13 14 0 18 -5 15 -17 -7
-21 16 -41 34 -29 8 4 21 6 30 3 10 -3 9 0 -3 8 -18 11 -18 12 4 24 13 7 25
22 27 33 3 24 -12 38 -23 21z"/>
<path d="M3696 342 c-2 -4 0 -14 6 -22 8 -12 9 -12 4 3 -4 12 0 17 15 17 13 0
18 -4 13 -12 -4 -7 -3 -8 5 -4 6 4 9 12 6 17 -7 11 -42 12 -49 1z"/>
<path d="M3254 328 c-4 -5 -13 -7 -23 -3 -13 5 -14 4 -3 -6 9 -10 15 -10 23
-2 6 6 18 9 25 6 8 -3 14 -1 14 4 0 12 -29 13 -36 1z"/>
<path d="M3311 330 c0 -8 4 -22 9 -30 12 -18 12 -2 0 25 -6 13 -9 15 -9 5z"/>
<path d="M3466 325 c-11 -8 -15 -15 -9 -15 6 0 16 7 23 15 16 19 11 19 -14 0z"/>
<path d="M3501 323 c-1 -13 -6 -22 -13 -20 -6 1 -13 -5 -13 -13 -1 -8 0 -9 2
-2 3 7 9 10 14 6 11 -7 23 21 16 38 -3 7 -6 3 -6 -9z"/>
<path d="M3401 314 c0 -11 3 -14 6 -6 3 7 2 16 -1 19 -3 4 -6 -2 -5 -13z"/>
<path d="M3570 320 c0 -5 5 -10 10 -10 6 0 10 5 10 10 0 6 -4 10 -10 10 -5 0
-10 -4 -10 -10z"/>
<path d="M3173 310 c2 -8 13 -14 25 -14 14 1 20 -4 19 -17 -1 -22 -13 -25 -20
-6 -3 6 -4 2 -4 -10 1 -17 5 -20 18 -13 24 13 19 55 -6 55 -11 -1 -24 4 -28
10 -5 6 -7 4 -4 -5z"/>
<path d="M3435 303 c5 -19 3 -22 -12 -17 -15 5 -15 4 -3 -5 21 -14 35 3 21 26
-11 16 -11 16 -6 -4z"/>
<path d="M3516 293 c-6 -14 -5 -15 5 -6 7 7 10 15 7 18 -3 3 -9 -2 -12 -12z"/>
<path d="M3550 290 c-9 -6 -10 -10 -3 -10 6 0 15 5 18 10 8 12 4 12 -15 0z"/>
<path d="M3010 280 c0 -5 5 -10 10 -10 6 0 10 5 10 10 0 6 -4 10 -10 10 -5 0
-10 -4 -10 -10z"/>
<path d="M3096 274 c-10 -25 1 -29 14 -5 6 12 7 21 1 21 -5 0 -12 -7 -15 -16z"/>
<path d="M3150 286 c0 -2 7 -7 16 -10 8 -3 12 -2 9 4 -6 10 -25 14 -25 6z"/>
<path d="M3380 280 c-9 -6 -10 -10 -3 -10 6 0 15 5 18 10 8 12 4 12 -15 0z"/>
<path d="M2935 270 c-7 -12 -8 -11 28 -16 16 -1 25 1 21 7 -3 5 -15 7 -26 3
-14 -4 -18 -2 -14 5 4 6 5 11 2 11 -3 0 -8 -4 -11 -10z"/>
<path d="M3036 265 c-9 -26 -7 -32 5 -12 6 10 9 21 6 23 -2 3 -7 -2 -11 -11z"/>
<path d="M3134 269 c1 -7 13 -14 27 -16 18 -2 20 -1 9 6 -8 5 -17 8 -21 5 -4
-2 -10 1 -12 6 -3 6 -4 5 -3 -1z"/>
<path d="M3273 251 c0 -11 5 -18 9 -15 4 3 5 11 1 19 -7 21 -12 19 -10 -4z"/>
<path d="M3395 260 c-3 -6 1 -7 9 -4 18 7 21 14 7 14 -6 0 -13 -4 -16 -10z"/>
<path d="M2856 245 c-3 -9 -11 -13 -17 -9 -8 5 -9 3 -4 -5 6 -10 11 -9 23 3 9
8 13 18 10 21 -3 3 -8 -1 -12 -10z"/>
<path d="M3001 253 c-1 -6 -4 -20 -7 -30 -5 -17 -5 -17 6 0 6 10 9 23 6 30 -3
9 -5 9 -5 0z"/>
<path d="M2908 243 c7 -3 16 -2 19 1 4 3 -2 6 -13 5 -11 0 -14 -3 -6 -6z"/>
<path d="M3060 240 c8 -5 22 -9 30 -9 10 0 8 3 -5 9 -27 12 -43 12 -25 0z"/>
<path d="M3221 241 c-10 -7 -7 -9 12 -8 15 1 27 5 27 10 0 10 -22 9 -39 -2z"/>
<path d="M2875 229 c-4 -6 -5 -12 -2 -15 2 -3 7 2 10 11 7 17 1 20 -8 4z"/>
<path d="M2958 233 c7 -3 16 -2 19 1 4 3 -2 6 -13 5 -11 0 -14 -3 -6 -6z"/>
<path d="M3148 233 c7 -3 16 -2 19 1 4 3 -2 6 -13 5 -11 0 -14 -3 -6 -6z"/>
<path d="M2690 220 c0 -5 5 -10 11 -10 5 0 7 5 4 10 -3 6 -8 10 -11 10 -2 0
-4 -4 -4 -10z"/>
<path d="M2779 226 c-9 -8 -3 -49 7 -53 8 -3 12 -9 9 -13 -3 -5 0 -12 6 -16 7
-4 9 -3 5 4 -3 5 0 13 6 15 10 4 10 6 0 6 -7 1 -10 5 -7 11 3 5 0 7 -7 5 -8
-3 -14 2 -15 13 -1 11 6 18 18 19 11 1 17 -1 15 -5 -2 -4 1 -15 8 -24 11 -15
13 -15 24 3 7 11 8 19 2 19 -5 0 -10 -5 -10 -12 0 -6 -3 -8 -7 -4 -5 4 -8 13
-8 19 0 9 -39 20 -46 13z"/>
<path d="M2889 209 c-6 -13 -6 -19 1 -19 5 0 10 6 10 13 0 7 9 13 21 14 20 2
20 1 5 -16 -9 -10 -16 -22 -16 -27 0 -4 8 3 17 16 21 30 20 35 -7 36 -12 1
-25 -7 -31 -17z"/>
<path d="M3013 217 c-3 -5 0 -14 6 -20 9 -9 11 -8 6 3 -4 11 1 16 14 17 14 1
18 -3 14 -15 -4 -14 -3 -14 5 -2 6 8 9 17 6 21 -6 10 -44 7 -51 -4z"/>
<path d="M3110 220 c0 -5 5 -10 10 -10 6 0 10 5 10 10 0 6 -4 10 -10 10 -5 0
-10 -4 -10 -10z"/>
<path d="M3175 220 c-3 -6 1 -7 9 -4 18 7 21 14 7 14 -6 0 -13 -4 -16 -10z"/>
<path d="M2576 195 c3 -8 -3 -12 -18 -11 -18 1 -23 -4 -23 -24 0 -26 26 -36
31 -12 1 7 0 8 -3 2 -8 -16 -19 -12 -20 9 -1 14 4 19 18 16 11 -2 22 2 26 10
3 8 10 12 17 8 6 -3 7 -2 3 2 -12 14 -36 14 -31 0z"/>
<path d="M2666 195 c4 -8 8 -15 10 -15 2 0 4 7 4 15 0 8 -4 15 -10 15 -5 0 -7
-7 -4 -15z"/>
<path d="M2730 200 c8 -5 20 -10 25 -10 6 0 3 5 -5 10 -8 5 -19 10 -25 10 -5
0 -3 -5 5 -10z"/>
<path d="M2962 198 c2 -6 15 -13 28 -15 24 -3 24 -3 5 11 -24 18 -38 20 -33 4z"/>
<path d="M3085 200 c3 -5 8 -10 11 -10 2 0 4 5 4 10 0 6 -5 10 -11 10 -5 0 -7
-4 -4 -10z"/>
<path d="M2697 193 c-4 -3 -7 -11 -7 -17 0 -6 5 -5 12 2 6 6 9 14 7 17 -3 3
-9 2 -12 -2z"/>
<path d="M2719 183 c0 -5 -3 -19 -5 -32 -2 -14 -2 -22 1 -19 8 8 17 58 10 58
-3 0 -5 -3 -6 -7z"/>
<path d="M2854 179 c-3 -6 -1 -16 5 -22 9 -9 10 -7 5 8 -7 18 -6 19 9 6 10 -8
19 -12 22 -10 2 3 -4 10 -15 17 -13 8 -21 8 -26 1z"/>
<path d="M2935 180 c-3 -5 -1 -10 4 -10 6 0 11 5 11 10 0 6 -2 10 -4 10 -3 0
-8 -4 -11 -10z"/>
<path d="M2390 162 c0 -4 9 -13 20 -20 11 -7 20 -9 20 -4 0 4 -9 13 -20 20
-11 7 -20 9 -20 4z"/>
<path d="M2460 159 c-12 -9 -12 -10 3 -5 15 5 17 2 12 -17 -5 -20 -5 -20 6 -4
14 23 0 40 -21 26z"/>
<path d="M2511 154 c0 -11 3 -14 6 -6 3 7 2 16 -1 19 -3 4 -6 -2 -5 -13z"/>
<path d="M2591 154 c0 -11 3 -14 6 -6 3 7 2 16 -1 19 -3 4 -6 -2 -5 -13z"/>
<path d="M2650 160 c0 -5 5 -10 10 -10 6 0 10 5 10 10 0 6 -4 10 -10 10 -5 0
-10 -4 -10 -10z"/>
<path d="M2748 163 c7 -3 16 -2 19 1 4 3 -2 6 -13 5 -11 0 -14 -3 -6 -6z"/>
<path d="M2257 138 c2 -5 13 -8 23 -8 10 0 21 3 23 8 3 4 -8 7 -23 7 -15 0
-26 -3 -23 -7z"/>
<path d="M2336 142 c-3 -4 0 -14 6 -22 8 -12 9 -12 5 2 -4 12 0 16 14 15 11
-1 19 -9 19 -20 0 -10 -4 -16 -8 -13 -4 2 -14 0 -22 -5 -11 -7 -8 -8 10 -6 33
5 36 48 3 53 -12 2 -24 0 -27 -4z"/>
<path d="M2735 140 c-3 -5 -1 -10 4 -10 6 0 11 5 11 10 0 6 -2 10 -4 10 -3 0
-8 -4 -11 -10z"/>
<path d="M2228 133 c6 -2 10 -8 8 -12 -3 -4 5 -8 16 -8 20 -2 20 -1 2 12 -11
8 -23 14 -29 14 -5 0 -4 -3 3 -6z"/>
<path d="M2440 135 c0 -6 6 -17 13 -24 10 -10 8 -12 -8 -9 -11 1 -26 10 -33
18 -11 13 -12 12 -3 -6 6 -12 19 -21 31 -20 25 1 27 6 12 31 -6 11 -12 15 -12
10z"/>
<path d="M2313 123 c4 -6 0 -14 -9 -17 -9 -4 -14 -9 -11 -13 4 -3 2 -15 -4
-27 -10 -20 -9 -20 5 -2 9 10 13 23 10 27 -3 5 2 9 10 9 19 0 21 16 4 26 -6 4
-8 3 -5 -3z"/>
<path d="M2494 121 c4 -5 1 -12 -4 -14 -6 -3 -5 -4 2 -3 15 3 23 26 8 26 -6 0
-9 -4 -6 -9z"/>
<path d="M2570 120 c0 -5 5 -10 10 -10 6 0 10 5 10 10 0 6 -4 10 -10 10 -5 0
-10 -4 -10 -10z"/>
<path d="M1800 96 c7 -7 13 -7 20 0 6 6 3 10 -10 10 -13 0 -16 -4 -10 -10z"/>
<path d="M2165 94 c-16 -13 -16 -15 -3 -11 11 4 23 -2 33 -16 8 -12 15 -17 15
-13 0 5 -7 18 -17 28 -15 17 -15 18 5 18 12 0 21 -6 20 -12 -2 -7 3 -13 11
-13 8 0 15 6 17 13 1 7 0 8 -3 2 -7 -14 -24 -13 -20 2 3 19 -35 20 -58 2z"/>
<path d="M2535 100 c-3 -6 1 -7 9 -4 18 7 21 14 7 14 -6 0 -13 -4 -16 -10z"/>
<path d="M1837 93 c-4 -3 -7 -11 -7 -17 0 -6 5 -5 12 2 6 6 9 14 7 17 -3 3 -9
2 -12 -2z"/>
<path d="M2026 85 c-11 -8 -15 -15 -9 -15 6 0 16 7 23 15 16 19 11 19 -14 0z"/>
<path d="M2061 83 c-1 -13 -7 -22 -13 -21 -8 2 -12 -6 -11 -19 2 -13 -2 -22
-8 -20 -6 1 -14 -5 -16 -13 -4 -12 -3 -12 5 -2 5 8 13 14 18 13 5 0 8 9 7 20
-2 12 1 17 7 14 12 -7 24 19 17 37 -3 7 -6 3 -6 -9z"/>
<path d="M2271 84 c0 -11 3 -14 6 -6 3 7 2 16 -1 19 -3 4 -6 -2 -5 -13z"/>
<path d="M1975 80 c-8 -13 4 -32 15 -25 5 3 11 -2 13 -10 3 -11 4 -10 3 2 -1
10 -8 17 -15 15 -9 -2 -11 3 -8 13 7 17 2 20 -8 5z"/>
<path d="M2395 80 c3 -5 8 -10 11 -10 2 0 4 5 4 10 0 6 -5 10 -11 10 -5 0 -7
-4 -4 -10z"/>
<path d="M2108 73 c7 -3 16 -2 19 1 4 3 -2 6 -13 5 -11 0 -14 -3 -6 -6z"/>
<path d="M2350 76 c0 -2 9 -6 20 -9 11 -3 18 -1 14 4 -5 9 -34 13 -34 5z"/>
<path d="M1850 60 c0 -5 5 -10 11 -10 5 0 7 5 4 10 -3 6 -8 10 -11 10 -2 0 -4
-4 -4 -10z"/>
<path d="M2077 56 c-3 -8 1 -22 9 -33 14 -17 15 -17 6 2 -5 11 -7 26 -5 33 6
17 -4 15 -10 -2z"/>
<path d="M2136 63 c-7 -8 13 -33 27 -33 6 0 2 7 -9 15 -19 15 -19 16 1 13 11
-2 24 -7 28 -13 5 -6 7 -4 5 4 -4 15 -41 25 -52 14z"/>
<path d="M2230 48 l-25 -20 27 16 c20 12 28 12 31 3 4 -9 6 -9 6 0 2 21 -14
22 -39 1z"/>
<path d="M2310 60 c0 -5 7 -7 15 -4 8 4 15 8 15 10 0 2 -7 4 -15 4 -8 0 -15
-4 -15 -10z"/>
<path d="M1945 40 c-3 -6 1 -7 9 -4 18 7 21 14 7 14 -6 0 -13 -4 -16 -10z"/>
<path d="M2110 30 c9 -17 30 -20 30 -4 0 3 -4 2 -10 -1 -5 -3 -10 1 -10 9 0 9
-5 16 -10 16 -7 0 -7 -7 0 -20z"/>
<path d="M1910 30 c0 -5 5 -10 10 -10 6 0 10 5 10 10 0 6 -4 10 -10 10 -5 0
-10 -4 -10 -10z"/>
<path d="M1980 29 c0 -5 -4 -8 -9 -4 -5 3 -12 1 -15 -4 -4 -5 2 -8 11 -7 15 3
33 26 19 26 -3 0 -6 -5 -6 -11z"/>
</g>
</svg>
